# xmcd
#
# Track frame offsets:
#	150
#	16052
#	31663
#	49671
#	67258
#	85003
#	101866
#	117558
#	134891
#	149809
#	163111
#	176673
#	193871
#	206086
#	221859
#	240507
#	259365
#	270166
#
# Disc length: 3807 seconds
#
# Revision: 0
# Processed by: cddbd v1.5.2PL0 Copyright (c) Steve Scherf et al.
# Submitted via: EasyCDDAExtractor 12.0.7.1
#
DISCID=1c0edd12
DTITLE=Вика Цыганова - Аллея шансона
DYEAR=2011
DGENRE=Chanson
TTITLE0=Приходите в мой дом
TTITLE1=Давай, гармонь
TTITLE2=Мариманы
TTITLE3=Раскатились жемчуга
TTITLE4=Доставай гитару
TTITLE5=Любовь
TTITLE6=Дорогой длинною
TTITLE7=Июнь
TTITLE8=Антоновка
TTITLE9=Москва златоглавая
TTITLE10=Веселись, Русь!
TTITLE11=Альтаир
TTITLE12=Отцвели хризантемы
TTITLE13=Лето кончилось
TTITLE14=Сверчки
TTITLE15=Время
TTITLE16=Я ехала домой
TTITLE17=Накрыла осень
EXTD=
EXTT0=
EXTT1=
EXTT2=
EXTT3=
EXTT4=
EXTT5=
EXTT6=
EXTT7=
EXTT8=
EXTT9=
EXTT10=
EXTT11=
EXTT12=
EXTT13=
EXTT14=
EXTT15=
EXTT16=
EXTT17=
PLAYORDER=
